<mxfile host="app.diagrams.net" modified="2023-05-15T08:34:25.950Z" agent="Mozilla/5.0 (Windows NT 10.0; Win64; x64) AppleWebKit/537.36 (KHTML, like Gecko) Chrome/112.0.0.0 Safari/537.36 OPR/98.0.0.0" version="21.3.0" etag="DV2MjcnUwbX5x6FeKHXk" type="github">
  <diagram name="1 oldal" id="-MFxgAG2QuZnw5XRDOWt">
    <mxGraphModel>
      <root>
        <mxCell id="0" />
        <mxCell id="1" parent="0" />
      </root>
    </mxGraphModel>
  </diagram>
</mxfile>
